<?xml version="1.0" encoding="UTF-8"?>
<svg width="39px" height="38px" viewBox="0 0 39 38" version="1.1" xmlns="http://www.w3.org/2000/svg" xmlns:xlink="http://www.w3.org/1999/xlink">
    <!-- Generator: Sketch 51.2 (57519) - http://www.bohemiancoding.com/sketch -->
    <title>logo-symbol</title>
    <desc>Created with Sketch.</desc>
    <defs></defs>
    <g id="Page-1" stroke="none" stroke-width="1" fill="none" fill-rule="evenodd">
        <g id="1-Home-Mobile-Mockup" transform="translate(-20.000000, -13.000000)" fill="#00DCF0">
            <g id="section-1">
                <g id="menu">
                    <g id="logo" transform="translate(20.000000, 13.000000)">
                        <path d="M22.2857143,10.5346535 L22.2857143,16.1212121 L16.7142857,10.5346535 L11.8857143,10.5346535 L11.8857143,7.65828964 L9.28888071,4.97684349 C9.28677589,4.91749117 9.28571429,4.8578636 9.28571429,4.7979798 C9.28571429,2.14812873 11.3643922,0 13.9285714,0 C16.4927506,0 18.5714286,2.14812873 18.5714286,4.7979798 L18.5714286,9.40863448 L20.4285714,11.3255294 L20.4285714,4.7979798 C20.4285714,2.14812873 22.5072494,0 25.0714286,0 C27.6356078,0 29.7142857,2.14812873 29.7142857,4.7979798 C29.7142857,4.8578636 29.7132241,4.91749116 29.7111193,4.97684349 L27.1142857,7.65828964 L27.1142857,10.5346535 L22.2857143,10.5346535 Z M34.9321663,16.1212121 L36.3431698,14.6618962 C37.9137889,15.4311496 39,17.0844875 39,19 C39,20.9155125 37.9137889,22.5688504 36.3431698,23.3381038 L34.9321663,21.8787879 L28.9714286,21.8787879 L28.9714286,16.1212121 L34.9321663,16.1212121 Z M28.9714286,23.7979798 L33.7785431,23.7979798 C35.2290936,24.6094605 36.2142857,26.1959353 36.2142857,28.020202 C36.2142857,30.4820774 34.4200628,32.5108882 32.1092253,32.7863399 L28.9714286,29.5463044 L28.9714286,23.7979798 Z M27.1142857,30.3417104 L29.7111193,33.0231565 C29.7132241,33.0825088 29.7142857,33.1421364 29.7142857,33.2020202 C29.7142857,35.8518713 27.6356078,38 25.0714286,38 C22.5072494,38 20.4285714,35.8518713 20.4285714,33.2020202 L20.4285714,28.6028475 L18.5714286,26.6836556 L18.5714286,33.2020202 C18.5714286,35.8518713 16.4927506,38 13.9285714,38 C11.3643922,38 9.28571429,35.8518713 9.28571429,33.2020202 C9.28571429,33.1421364 9.28677589,33.0825088 9.28888071,33.0231565 L11.8857143,30.3417104 L11.8857143,27.4653465 L16.7142857,27.4653465 L16.7142857,21.8787879 L22.2857143,27.4653465 L27.1142857,27.4653465 L27.1142857,30.3417104 Z M28.9714286,14.2020202 L28.9714286,8.4536956 L32.1092253,5.21366009 C34.4200628,5.48911182 36.2142857,7.51792263 36.2142857,9.97979798 C36.2142857,11.8040647 35.2290936,13.3905395 33.7785431,14.2020202 L28.9714286,14.2020202 Z M4.06783366,21.8787879 L2.65683016,23.3381038 C1.08621112,22.5688504 0,20.9155125 0,19 C0,17.0844875 1.08621112,15.4311496 2.65683016,14.6618962 L4.06783366,16.1212121 L10.0285714,16.1212121 L10.0285714,21.8787879 L4.06783366,21.8787879 Z M5.22145692,14.2020202 C3.77090645,13.3905395 2.78571429,11.8040647 2.78571429,9.97979798 C2.78571429,7.51792263 4.57993719,5.48911182 6.89077469,5.21366009 L10.0285714,8.4536956 L10.0285714,14.2020202 L5.22145692,14.2020202 Z M10.0285714,23.7979798 L10.0285714,29.5463044 L6.89077469,32.7863399 C4.57993719,32.5108882 2.78571429,30.4820774 2.78571429,28.020202 C2.78571429,26.1959353 3.77090645,24.6094605 5.22145692,23.7979798 L10.0285714,23.7979798 Z" id="logo-symbol"></path>
                    </g>
                </g>
            </g>
        </g>
    </g>
</svg>